<?xml version="1.0" encoding="utf-8"?>
<!-- Generator: Adobe Illustrator 17.1.0, SVG Export Plug-In . SVG Version: 6.00 Build 0)  -->
<!DOCTYPE svg PUBLIC "-//W3C//DTD SVG 1.1//EN" "http://www.w3.org/Graphics/SVG/1.1/DTD/svg11.dtd">
<svg version="1.1" id="Layer_1" xmlns="http://www.w3.org/2000/svg" xmlns:xlink="http://www.w3.org/1999/xlink" x="0px" y="0px"
	 viewBox="0 0 216 216" enable-background="new 0 0 216 216" xml:space="preserve">
<g>
	<path fill="#A9A8A8" d="M186.305,199.47c-0.35,0-0.703-0.074-1.034-0.225l-29.936-13.62c-0.74-0.336-1.271-1.012-1.421-1.811
		l-15.361-81.253c-0.188-0.997,0.243-2.008,1.094-2.561c0.849-0.553,1.949-0.537,2.784,0.04l19.696,13.619
		c0.457,0.316,0.796,0.775,0.963,1.305l25.601,81.254c0.296,0.941,0.012,1.969-0.728,2.624
		C187.496,199.255,186.904,199.47,186.305,199.47z M158.586,181.612l23.649,10.76l-23.657-75.087l-13.981-9.667L158.586,181.612z"/>
</g>
<g>
	<path fill="#A9A8A8" d="M108.001,199.47c-0.539,0-1.07-0.174-1.51-0.507c-0.624-0.473-0.99-1.21-0.99-1.993v-91.495
		c0-1.282,0.97-2.356,2.245-2.487l33.008-3.378c1.302-0.132,2.471,0.747,2.711,2.022l15.361,81.253
		c0.241,1.273-0.531,2.52-1.778,2.871l-48.369,13.62C108.456,199.439,108.228,199.47,108.001,199.47z M110.501,107.733v85.936
		l42.987-12.104l-14.51-76.747L110.501,107.733z"/>
</g>
<g>
	<path fill="#A9A8A8" d="M29.694,199.47c-0.599,0-1.19-0.215-1.657-0.628c-0.739-0.654-1.023-1.682-0.728-2.624l25.601-81.254
		c0.167-0.53,0.506-0.989,0.963-1.305l19.696-13.619c0.835-0.577,1.934-0.593,2.784-0.04s1.282,1.564,1.094,2.561l-15.36,81.253
		c-0.15,0.799-0.681,1.475-1.421,1.811l-29.937,13.62C30.398,199.396,30.045,199.47,29.694,199.47z M57.422,117.285l-23.657,75.087
		l23.65-10.76l13.988-73.994L57.422,117.285z"/>
</g>
<g>
	<path fill="#A9A8A8" d="M108.001,199.47c-0.227,0-0.454-0.031-0.678-0.094l-48.37-13.62c-1.247-0.351-2.02-1.597-1.778-2.871
		l15.36-81.253c0.24-1.276,1.412-2.155,2.711-2.022l33.01,3.378c1.275,0.13,2.245,1.205,2.245,2.487v91.495
		c0,0.783-0.366,1.521-0.99,1.993C109.071,199.296,108.54,199.47,108.001,199.47z M62.513,181.565l42.988,12.104v-85.936
		l-28.479-2.915L62.513,181.565z"/>
</g>
<path fill="#A9A8A8" d="M107.846,16.53c-23.452,0-42.464,19.012-42.464,42.464c0,8.119,2.282,15.703,6.235,22.153l36.229,60.182
	l36.229-60.182c3.954-6.45,6.235-14.034,6.235-22.153C150.31,35.541,131.298,16.53,107.846,16.53z M107.977,70.279
	c-7.06,0-12.784-5.724-12.784-12.782c0-7.06,5.724-12.783,12.784-12.783c7.059,0,12.782,5.723,12.782,12.783
	C120.759,64.555,115.036,70.279,107.977,70.279z"/>
</svg>
