<?xml version="1.0" encoding="UTF-8" standalone="no"?>
<!-- Generator: Adobe Illustrator 16.0.0, SVG Export Plug-In . SVG Version: 6.00 Build 0)  -->

<svg
   xmlns:dc="http://purl.org/dc/elements/1.1/"
   xmlns:cc="http://creativecommons.org/ns#"
   xmlns:rdf="http://www.w3.org/1999/02/22-rdf-syntax-ns#"
   xmlns:svg="http://www.w3.org/2000/svg"
   xmlns="http://www.w3.org/2000/svg"
   xmlns:sodipodi="http://sodipodi.sourceforge.net/DTD/sodipodi-0.dtd"
   xmlns:inkscape="http://www.inkscape.org/namespaces/inkscape"
   version="1.1"
   id="Layer_0_xA0_Image_1_"
   x="0px"
   y="0px"
   width="424px"
   height="505px"
   viewBox="0 0 424 505"
   enable-background="new 0 0 424 505"
   xml:space="preserve"
   inkscape:version="0.48.4 r9939"
   sodipodi:docname="MDME_logo.svg"><metadata
     id="metadata17"><rdf:RDF><cc:Work
         rdf:about=""><dc:format>image/svg+xml</dc:format><dc:type
           rdf:resource="http://purl.org/dc/dcmitype/StillImage" /></cc:Work></rdf:RDF></metadata><defs
     id="defs15" /><sodipodi:namedview
     pagecolor="#ffffff"
     bordercolor="#666666"
     borderopacity="1"
     objecttolerance="10"
     gridtolerance="10"
     guidetolerance="10"
     inkscape:pageopacity="0"
     inkscape:pageshadow="2"
     inkscape:window-width="949"
     inkscape:window-height="848"
     id="namedview13"
     showgrid="false"
     inkscape:zoom="0.46732673"
     inkscape:cx="212"
     inkscape:cy="252.5"
     inkscape:window-x="0"
     inkscape:window-y="0"
     inkscape:window-maximized="0"
     inkscape:current-layer="Layer_0_xA0_Image_1_" /><g
     id="g3"
     transform="matrix(0.96592583,-0.25881906,0.25881906,0.96592583,-53.263628,52.765817)"><path
       d="m 413,109 c 0,1.67 0,3.33 0,5 -7.24,31.69 -26.65,64.97 -41,94 -16.92,34.22 -30.76,71.11 -77,72 -5.64,20.36 -10.31,41.69 -19,59 9.19,8.15 20.16,14.51 30,22 25.32,-21.32 67.17,-3.44 72,26 3.99,24.31 -11.1,49.23 -36,53 -32.82,4.96 -61.17,-23.72 -49,-61 -8.41,-7.25 -18.11,-13.23 -27,-20 -30.72,44.71 -93,80.36 -169,74 C 42.01,428.4 10.31,396.37 0,345 0,338.67 0,332.33 0,326 9.7,274.37 51.52,254.86 88,230 62.27,207.83 27.6,191.94 27,147 25.81,57.21 189.76,47.46 189,142 c -0.39,48.2 -37.26,64.78 -66,89 46.41,31.25 90.4,64.93 137,96 6.25,-16.08 11.71,-32.96 16,-51 -4.75,-4.88 -12.82,-10.56 -18,-18 -13.59,-19.53 -14.42,-44.53 -16,-78 -1.54,-32.57 -6.53,-66.41 -3,-92 3.86,-27.98 22.49,-33.13 42,-43 7.39,-3.74 15,-13.19 23,-12 7.78,1.16 12.64,14.68 8,24 -30.57,2.71 -55.24,6.7 -59,36 -2.98,23.23 1.76,48.93 3,80 1.76,44 2.25,76.39 27,89 23.6,12.03 44.74,-7.42 55,-21 11.62,-15.38 21.6,-40.68 33,-65 12.57,-26.8 41.62,-65.64 17,-90 -6.07,-6 -28.27,-11.32 -30,-20 -1.57,-7.89 6.78,-18.74 15,-18 6.98,0.63 12.97,13.96 19,21 11.34,13.23 19.85,22.64 21,40 z m -64,323 c 39.15,-15.33 25.14,-79 -19,-74 -19.85,2.25 -35.17,15.08 -35,38 0.21,27.86 29.15,45.73 54,36 z M 248,346 c -47.68,-34.99 -95.24,-70.1 -145,-103 -30.88,19.04 -77.87,42.97 -81,86 -1.35,18.57 2.92,32.74 11,46 43.89,72.01 186.88,32.98 215,-29 z M 109,218 c 24.15,-16.24 63.04,-40.21 58,-81 -7.45,-60.27 -113.95,-51.05 -118,4 -2.89,39.28 36.46,59.87 60,77 z"
       id="path5"
       inkscape:connector-curvature="0" /><path
       d="m 362,395 c 0.88,35.16 -58.2,40.72 -56,-1 0.73,-13.81 8.7,-22.62 23,-25 18.33,-3.05 32.53,7.28 33,26 z m -27,23 c 22.79,-0.96 25.51,-32.08 11,-41 -4.46,-2.74 -8.13,-3.37 -16,-2 -27.38,4.78 -18.46,43.99 5,43 z"
       id="path7"
       inkscape:connector-curvature="0" /><path
       d="m 330,358 c 44.14,-5 58.15,58.67 19,74 -24.85,9.73 -53.79,-8.14 -54,-36 -0.17,-22.92 15.15,-35.75 35,-38 z m -24,36 c -2.2,41.72 56.88,36.16 56,1 -0.47,-18.72 -14.67,-29.05 -33,-26 -14.3,2.38 -22.27,11.19 -23,25 z"
       id="path9"
       inkscape:connector-curvature="0"
       style="fill:#ffffff" /><path
       d="m 346,377 c 14.51,8.92 11.79,40.04 -11,41 -23.46,0.99 -32.38,-38.22 -5,-43 7.87,-1.37 11.54,-0.74 16,2 z"
       id="path11"
       inkscape:connector-curvature="0"
       style="fill:#ffffff" /></g></svg>